# xmcd
#
# Track frame offsets:
#	150
#	14682
#	29870
#	52901
#	68019
#	82371
#	100958
#	113262
#	125970
#	144097
#	158378
#	171838
#	195681
#
# Disc length: 2870 seconds
#
# Revision: 0
# Processed by: cddbd v1.4PL0 Copyright (c) Steve Scherf et al.
# Submitted via: dBpowerAMP V4.0
#
DISCID=af0b340d
DTITLE=Shane Worley - Heartaches and Lies
DYEAR=1900
DGENRE=Country
TTITLE0=You Lied
TTITLE1=Angel's Wings
TTITLE2=Mirrors Don't Lie
TTITLE3=Thanks For The Memories
TTITLE4=White Lies
TTITLE5=The Hardest Part
TTITLE6=How Many Memories
TTITLE7=Honky Tonk Angels
TTITLE8=The Eyes Of A Fool
TTITLE9=Paintin' Rainbows
TTITLE10=I Laid Your Memory To Rest
TTITLE11=How Good Love Went Wrong
TTITLE12=DATA
EXTD=
EXTT0=
EXTT1=
EXTT2=
EXTT3=
EXTT4=
EXTT5=
EXTT6=
EXTT7=
EXTT8=
EXTT9=
EXTT10=
EXTT11=
EXTT12=
PLAYORDER=
